
<svg xmlns="http://www.w3.org/2000/svg" version="1.1" xmlns:xlink="http://www.w3.org/1999/xlink" preserveAspectRatio="none" x="0px" y="0px" width="70px" height="100px" viewBox="0 0 70 100">
<defs>
<g id="Layer0_0_FILL">
<path fill="#000000" stroke="none" d="
M 8.6 121.65
L 8.6 120.05 -3 120.05 -3 338.5
Q -5.25 338.1 -6.2 337.95 -7.85 337.7 -8.85 337.3 -44 326.4 -76.2 349 -100.8 366.35 -110.6 397.35
L -110.6 411.1
Q -105.05 426.1 -87.45 430.45 -47.65 440.4 -16.8 415.45 -3.6 404.75 2.95 389.5 6.37890625 381.6333984375 7.95 372.8
L 7.95 375.4
Q 8.266796875 372.738671875 8.4 369.95 8.5076171875 369.241796875 8.6 368.5
L 8.65 281.8
Q 8.7 279.48984375 8.7 277.15 8.7 217.45 8.7 187.55
L 8.7 179.25
Q 14.8 182.8 26.2 189.2 36.05 194.8 42.15 199.1 43.95 200.4 45.7 201.7 71.45 221.5 76.35 251 76.7 253.1 77 255.25 78.35 266.6 77.05 278.7 75.65 291.45 71.15 305.75 68.75 313.1 64.7 323.85 62.4 329.85 57.7 342.2 73.55 322.7 81.6 300.65 91.75 272.95 86 247.15 84.65 241.1 82.5 235.15 75.4 215.7 59.25 197.9 52.2 190.1 45.7 181.8 24.3427734375 154.5646484375 8.6 121.65 Z"/>
</g>
</defs>

<g transform="matrix( 0.271697998046875, 0, 0, 0.271697998046875, 38.95,-24.7) ">
<g transform="matrix( 1, 0, 0, 1, 0,0) ">
<use xlink:href="#Layer0_0_FILL"/>
</g>
</g>
</svg>
