
<svg xmlns="http://www.w3.org/2000/svg" version="1.1" xmlns:xlink="http://www.w3.org/1999/xlink" preserveAspectRatio="none" x="0px" y="0px" width="70px" height="100px" viewBox="0 0 70 100">
<defs>
<g id="Duplicate_Items_Folder_Notes_40_Layer0_0_FILL">
<path fill="#000000" stroke="none" d="
M 182.65 166.4
Q 185.2 181.3 183.45 197.35 181.9 211.6 176.85 227.55 174.2 235.75 169.65 247.75 167.1 254.45 161.85 268.25 179.55 246.5 188.55 221.85 199.85 190.95 193.45 162.1 187.1 133.1 163.6 107.15 124.1 63.45 99.45 5.15 98.9 3.9 96.85 0
L 95.95 0.25 95.95 278.6
Q 93.95 278.25 93.1 278.1 91.6 277.85 90.7 277.55 59.4 267.8 30.7 287.95 8.75 303.45 0 331.05
L 0 343.35
Q 4.95 356.7 20.65 360.6 56.15 369.5 83.65 347.2 95.4 337.65 101.3 324.1 106.8 311.35 106.9 295.65 107.15 254.8 107.15 195.65 107.15 128.95 107.15 95.6
L 107.15 86.3
Q 113.95 90.3 126.7 97.4 137.65 103.7 144.5 108.5 176.8 131.25 182.65 166.4 Z"/>
</g>
</defs>

<g transform="matrix( 0.271697998046875, 0, 0, 0.271697998046875, 38.95,-24.7) ">
<g transform="matrix( 0.895599365234375, 0, 0, 0.895599365234375, -97,108.05) ">
<use xlink:href="#Duplicate_Items_Folder_Notes_40_Layer0_0_FILL"/>
</g>
</g>
</svg>
